<?xml version="1.0" encoding="UTF-8" standalone="no"?> <svg xmlns="http://www.w3.org/2000/svg" viewBox="0 0 32 32"><defs><style>.cls-1{fill:#2d4a60;}.cls-2{fill:#009ae0;}.cls-3{fill:#fd3730;}.cls-4{fill:#eaeff0;}</style></defs><title>Bus Station</title><g id="Bus_Station" data-name="Bus Station"><path class="cls-1" d="M5,28a1,1,0,0,1-1-1V9A1,1,0,0,1,6,9V27A1,1,0,0,1,5,28Z"/><path class="cls-1" d="M17,23H13a1,1,0,0,0-1,1v2a2,2,0,0,0,2,2h2a2,2,0,0,0,2-2V24A1,1,0,0,0,17,23Z"/><path class="cls-1" d="M27,23H23a1,1,0,0,0-1,1v2a2,2,0,0,0,2,2h2a2,2,0,0,0,2-2V24A1,1,0,0,0,27,23Z"/><path class="cls-2" d="M27,25H13a3,3,0,0,1-3-3V9a5.006,5.006,0,0,1,5-5H25a5.006,5.006,0,0,1,5,5V22A3,3,0,0,1,27,25Z"/><path class="cls-3" d="M5,10A3,3,0,1,1,8,7,3,3,0,0,1,5,10Z"/><path class="cls-4" d="M26,8H14a2,2,0,0,0-2,2v6a1,1,0,0,0,1,1H27a1,1,0,0,0,1-1V10A2,2,0,0,0,26,8Z"/><circle class="cls-4" cx="15" cy="21" r="1"/><circle class="cls-4" cx="25" cy="21" r="1"/></g></svg>