<!DOCTYPE svg PUBLIC "-//W3C//DTD SVG 1.1//EN" "http://www.w3.org/Graphics/SVG/1.1/DTD/svg11.dtd">
<!-- Uploaded to: SVG Repo, www.svgrepo.com, Transformed by: SVG Repo Mixer Tools -->
<svg width="64px" height="64px" viewBox="0 0 36 36" xmlns="http://www.w3.org/2000/svg" xmlns:xlink="http://www.w3.org/1999/xlink" aria-hidden="true" role="img" class="iconify iconify--twemoji" preserveAspectRatio="xMidYMid meet" fill="#000000">
<g id="SVGRepo_bgCarrier" stroke-width="0"/>
<g id="SVGRepo_tracerCarrier" stroke-linecap="round" stroke-linejoin="round"/>
<g id="SVGRepo_iconCarrier">
<path fill="#6D6E71" d="M14 7h2v29h-2z"/>
<path fill="#6D6E71" d="M15 19h3v2h-3zm0-6h3v2h-3z"/>
<path fill="#BCBEC0" d="M29 24a1 1 0 0 1-1 1h-9a1 1 0 0 1-1-1V10a1 1 0 0 1 1-1h9a1 1 0 0 1 1 1v14z"/>
<path fill="#BE1931" d="M29 13v-3a1 1 0 0 0-1-1h-9a1 1 0 0 0-1 1v3h11z"/>
<path fill="#6D6E71" d="M21 34H9l-1 1v1h14v-1zm-2-2h-8l-1 1v1h10v-1z"/>
<circle fill="#BE1931" cx="15" cy="4" r="4"/>
<path fill="#808285" d="M20 13h3v3h-3z"/>
<path fill="#F4900C" d="M20 17h3v3h-3zm0 4h3v3h-3z"/>
<path fill="#808285" d="M24 13h3v3h-3zm0 4h3v3h-3z"/>
<path fill="#F4900C" d="M24 21h3v3h-3z"/>
<path fill="#BE1931" d="M13 2h4v4h-4zm7 8h7v2h-7z"/>
</g>
</svg>